<svg xmlns="http://www.w3.org/2000/svg" xmlns:xlink="http://www.w3.org/1999/xlink" width="500" zoomAndPan="magnify" viewBox="0 0 375 374.999991" height="500" preserveAspectRatio="xMidYMid meet" version="1.0"><defs><g/><clipPath id="641eec4014"><path d="M 321.789062 212.894531 L 353.289062 212.894531 L 353.289062 244.394531 L 321.789062 244.394531 Z M 321.789062 212.894531 " clip-rule="nonzero"/></clipPath></defs><g fill="#004aad" fill-opacity="1"><g transform="translate(17.205109, 223.893132)"><g><path d="M 50.765625 -104.5 C 48.078125 -104.5 45.5625 -103.101562 43.21875 -100.3125 C 40.882812 -97.53125 38.84375 -93.75 37.09375 -88.96875 C 35.351562 -84.195312 33.984375 -78.648438 32.984375 -72.328125 C 31.992188 -66.015625 31.5 -59.320312 31.5 -52.25 C 31.5 -45.1875 31.992188 -38.492188 32.984375 -32.171875 C 33.984375 -25.847656 35.351562 -20.296875 37.09375 -15.515625 C 38.84375 -10.742188 40.882812 -6.960938 43.21875 -4.171875 C 45.5625 -1.390625 48.078125 0 50.765625 0 C 44.296875 0 38.195312 -1.367188 32.46875 -4.109375 C 26.75 -6.847656 21.75 -10.578125 17.46875 -15.296875 C 13.1875 -20.023438 9.828125 -25.570312 7.390625 -31.9375 C 4.953125 -38.3125 3.734375 -45.082031 3.734375 -52.25 C 3.734375 -59.414062 4.953125 -66.179688 7.390625 -72.546875 C 9.828125 -78.921875 13.1875 -84.472656 17.46875 -89.203125 C 21.75 -93.929688 26.75 -97.660156 32.46875 -100.390625 C 38.195312 -103.128906 44.296875 -104.5 50.765625 -104.5 Z M 67.484375 -95.109375 C 67.484375 -96.597656 67.054688 -97.890625 66.203125 -98.984375 C 65.359375 -100.078125 64.289062 -100.992188 63 -101.734375 C 61.707031 -102.484375 60.289062 -103.054688 58.75 -103.453125 C 57.207031 -103.859375 55.738281 -104.160156 54.34375 -104.359375 C 57.925781 -104.054688 61.410156 -103.332031 64.796875 -102.1875 C 68.179688 -101.050781 71.316406 -99.609375 74.203125 -97.859375 C 77.085938 -96.117188 79.648438 -94.15625 81.890625 -91.96875 C 84.128906 -89.78125 85.992188 -87.539062 87.484375 -85.25 C 88.484375 -83.550781 89.253906 -81.878906 89.796875 -80.234375 C 90.347656 -78.597656 90.625 -76.984375 90.625 -75.390625 C 90.625 -73.203125 90.195312 -71.132812 89.34375 -69.1875 C 88.5 -67.25 87.351562 -65.554688 85.90625 -64.109375 C 84.46875 -62.671875 82.78125 -61.53125 80.84375 -60.6875 C 78.90625 -59.84375 76.835938 -59.421875 74.640625 -59.421875 C 72.453125 -59.421875 70.390625 -59.84375 68.453125 -60.6875 C 66.515625 -61.53125 64.820312 -62.671875 63.375 -64.109375 C 61.9375 -65.554688 60.789062 -67.25 59.9375 -69.1875 C 59.09375 -71.132812 58.671875 -73.203125 58.671875 -75.390625 C 58.671875 -77.484375 59.039062 -79.472656 59.78125 -81.359375 C 60.53125 -83.253906 61.601562 -84.945312 63 -86.4375 C 64.394531 -87.832031 65.488281 -89.273438 66.28125 -90.765625 C 67.082031 -92.265625 67.484375 -93.710938 67.484375 -95.109375 Z M 99.578125 -40.90625 C 97.085938 -40.90625 94.972656 -39.882812 93.234375 -37.84375 C 91.492188 -35.800781 90.625 -33.535156 90.625 -31.046875 L 90.625 0 C 88.832031 -1.09375 86.890625 -1.988281 84.796875 -2.6875 C 82.710938 -3.382812 80.273438 -3.734375 77.484375 -3.734375 C 75.097656 -3.734375 72.929688 -3.582031 70.984375 -3.28125 C 69.046875 -2.988281 67.179688 -2.640625 65.390625 -2.234375 C 63.597656 -1.835938 61.804688 -1.441406 60.015625 -1.046875 C 58.222656 -0.648438 56.332031 -0.351562 54.34375 -0.15625 C 56.03125 -0.351562 57.769531 -0.820312 59.5625 -1.5625 C 61.351562 -2.3125 62.945312 -3.132812 64.34375 -4.03125 L 64.34375 -31.046875 C 64.34375 -33.535156 63.472656 -35.800781 61.734375 -37.84375 C 59.992188 -39.882812 57.828125 -40.90625 55.234375 -40.90625 Z M 99.578125 -40.90625 "/></g></g></g><g fill="#004aad" fill-opacity="1"><g transform="translate(110.068978, 223.893132)"><g><path d="M 19.859375 -41.953125 C 16.671875 -41.953125 13.957031 -43.070312 11.71875 -45.3125 C 9.476562 -47.550781 8.359375 -50.265625 8.359375 -53.453125 C 8.359375 -55.941406 9.101562 -58.378906 10.59375 -60.765625 C 12.09375 -63.148438 14.035156 -65.285156 16.421875 -67.171875 C 18.804688 -69.066406 21.492188 -70.660156 24.484375 -71.953125 C 27.472656 -73.253906 30.457031 -74.050781 33.4375 -74.34375 C 30.75 -73.945312 28.679688 -73.148438 27.234375 -71.953125 C 25.796875 -70.765625 25.078125 -69.375 25.078125 -67.78125 C 25.078125 -66.6875 25.375 -65.613281 25.96875 -64.5625 C 26.570312 -63.519531 27.320312 -62.453125 28.21875 -61.359375 C 30.40625 -59.367188 31.5 -56.734375 31.5 -53.453125 C 31.5 -50.265625 30.351562 -47.550781 28.0625 -45.3125 C 25.78125 -43.070312 23.046875 -41.953125 19.859375 -41.953125 Z M 64.9375 -11.203125 C 64.9375 -9.410156 65.535156 -7.664062 66.734375 -5.96875 C 67.929688 -4.28125 69.375 -3.285156 71.0625 -2.984375 L 45.390625 0.75 L 45.09375 0.75 C 44.289062 0.75 43.640625 0.5 43.140625 0 C 42.648438 -0.5 42.40625 -1.144531 42.40625 -1.9375 L 42.40625 -45.09375 C 41.207031 -44.488281 39.738281 -43.738281 38 -42.84375 C 36.257812 -41.945312 34.566406 -40.753906 32.921875 -39.265625 C 31.273438 -37.773438 29.828125 -35.882812 28.578125 -33.59375 C 27.335938 -31.300781 26.570312 -28.414062 26.28125 -24.9375 C 25.976562 -21.351562 26.25 -18.191406 27.09375 -15.453125 C 27.9375 -12.710938 29.15625 -10.5 30.75 -8.8125 C 32.34375 -7.113281 34.234375 -5.914062 36.421875 -5.21875 C 38.617188 -4.53125 40.515625 -4.582031 42.109375 -5.375 C 40.316406 -4.082031 37.925781 -2.738281 34.9375 -1.34375 C 31.945312 0.0507812 28.410156 0.75 24.328125 0.75 C 19.648438 0.75 15.421875 -0.492188 11.640625 -2.984375 C 7.859375 -5.472656 5.421875 -8.804688 4.328125 -12.984375 C 3.128906 -17.265625 3.550781 -21.421875 5.59375 -25.453125 C 7.632812 -29.484375 10.742188 -32.796875 14.921875 -35.390625 C 17.117188 -36.679688 19.785156 -37.945312 22.921875 -39.1875 C 26.054688 -40.4375 29.390625 -41.65625 32.921875 -42.84375 C 36.453125 -44.039062 39.957031 -45.234375 43.4375 -46.421875 C 46.925781 -47.617188 50.085938 -48.914062 52.921875 -50.3125 C 55.765625 -51.707031 58.101562 -53.203125 59.9375 -54.796875 C 61.78125 -56.390625 62.753906 -58.179688 62.859375 -60.171875 C 62.953125 -61.359375 62.722656 -62.625 62.171875 -63.96875 C 61.628906 -65.3125 60.863281 -66.53125 59.875 -67.625 C 62.5625 -65.039062 64.203125 -62.054688 64.796875 -58.671875 C 64.890625 -58.273438 64.9375 -57.875 64.9375 -57.46875 C 64.9375 -57.070312 64.9375 -56.675781 64.9375 -56.28125 Z M 64.9375 -11.203125 "/></g></g></g><g fill="#004aad" fill-opacity="1"><g transform="translate(174.416656, 223.893132)"><g><path d="M 32.25 -8.21875 C 32.25 -6.425781 32.84375 -4.679688 34.03125 -2.984375 C 35.226562 -1.296875 36.675781 -0.300781 38.375 0 L 3.734375 0 C 5.421875 -0.300781 6.863281 -1.296875 8.0625 -2.984375 C 9.257812 -4.679688 9.859375 -6.425781 9.859375 -8.21875 L 9.859375 -61.359375 C 9.859375 -63.253906 9.257812 -65.019531 8.0625 -66.65625 C 6.863281 -68.300781 5.421875 -69.273438 3.734375 -69.578125 L 29.265625 -73.3125 L 29.703125 -73.3125 C 31.398438 -73.3125 32.25 -72.460938 32.25 -70.765625 Z M 71.515625 -8.21875 C 71.515625 -6.425781 72.109375 -4.679688 73.296875 -2.984375 C 74.492188 -1.296875 75.941406 -0.300781 77.640625 0 L 43 0 C 44.6875 -0.300781 46.128906 -1.296875 47.328125 -2.984375 C 48.523438 -4.679688 49.125 -6.425781 49.125 -8.21875 L 49.125 -52.25 C 49.125 -54.144531 49.519531 -55.738281 50.3125 -57.03125 C 51.101562 -58.320312 52 -59.488281 53 -60.53125 C 54 -61.582031 54.894531 -62.628906 55.6875 -63.671875 C 56.476562 -64.722656 56.875 -65.941406 56.875 -67.328125 C 56.875 -69.023438 55.925781 -70.492188 54.03125 -71.734375 C 52.144531 -72.984375 49.710938 -73.609375 46.734375 -73.609375 C 43.546875 -73.609375 40.707031 -73.207031 38.21875 -72.40625 C 35.726562 -71.613281 33.988281 -70.96875 33 -70.46875 C 36.476562 -72.15625 40.429688 -73.421875 44.859375 -74.265625 C 49.285156 -75.117188 53.488281 -75.097656 57.46875 -74.203125 C 61.457031 -73.304688 64.796875 -71.3125 67.484375 -68.21875 C 70.171875 -65.132812 71.515625 -60.507812 71.515625 -54.34375 Z M 110.78125 -8.21875 C 110.78125 -6.425781 111.375 -4.679688 112.5625 -2.984375 C 113.757812 -1.296875 115.207031 -0.300781 116.90625 0 L 82.265625 0 C 83.953125 -0.300781 85.394531 -1.296875 86.59375 -2.984375 C 87.789062 -4.679688 88.390625 -6.425781 88.390625 -8.21875 L 88.390625 -52.25 C 88.390625 -54.144531 88.785156 -55.738281 89.578125 -57.03125 C 90.367188 -58.320312 91.265625 -59.488281 92.265625 -60.53125 C 93.265625 -61.582031 94.160156 -62.628906 94.953125 -63.671875 C 95.742188 -64.722656 96.140625 -65.941406 96.140625 -67.328125 C 96.140625 -69.023438 95.171875 -70.492188 93.234375 -71.734375 C 91.296875 -72.984375 88.882812 -73.609375 86 -73.609375 C 82.8125 -73.609375 79.972656 -73.207031 77.484375 -72.40625 C 74.992188 -71.613281 73.253906 -70.96875 72.265625 -70.46875 C 75.742188 -72.15625 79.695312 -73.421875 84.125 -74.265625 C 88.550781 -75.117188 92.753906 -75.097656 96.734375 -74.203125 C 100.722656 -73.304688 104.0625 -71.3125 106.75 -68.21875 C 109.4375 -65.132812 110.78125 -60.507812 110.78125 -54.34375 Z M 110.78125 -8.21875 "/></g></g></g><g fill="#004aad" fill-opacity="1"><g transform="translate(284.59927, 223.893132)"><g><path d="M 50.765625 -8.8125 C 53.648438 -8.8125 56.484375 -9.53125 59.265625 -10.96875 C 62.054688 -12.414062 64.5 -14.429688 66.59375 -17.015625 C 63.601562 -11.640625 59.566406 -7.332031 54.484375 -4.09375 C 49.410156 -0.863281 43.835938 0.75 37.765625 0.75 C 33.085938 0.75 28.679688 -0.242188 24.546875 -2.234375 C 20.421875 -4.222656 16.816406 -6.910156 13.734375 -10.296875 C 10.648438 -13.679688 8.210938 -17.660156 6.421875 -22.234375 C 4.628906 -26.816406 3.734375 -31.75 3.734375 -37.03125 C 3.734375 -42.195312 4.628906 -47.09375 6.421875 -51.71875 C 8.210938 -56.351562 10.648438 -60.363281 13.734375 -63.75 C 16.816406 -67.132812 20.421875 -69.820312 24.546875 -71.8125 C 28.679688 -73.800781 33.085938 -74.796875 37.765625 -74.796875 C 36.773438 -74.597656 35.609375 -73.675781 34.265625 -72.03125 C 32.921875 -70.394531 31.648438 -68.234375 30.453125 -65.546875 C 29.265625 -62.859375 28.242188 -59.742188 27.390625 -56.203125 C 26.546875 -52.671875 26.125 -48.914062 26.125 -44.9375 C 26.125 -39.957031 26.769531 -35.273438 28.0625 -30.890625 C 29.363281 -26.515625 31.132812 -22.6875 33.375 -19.40625 C 35.613281 -16.125 38.222656 -13.535156 41.203125 -11.640625 C 44.191406 -9.753906 47.378906 -8.8125 50.765625 -8.8125 Z M 48.96875 -49.265625 C 48.96875 -52.253906 48.71875 -55.164062 48.21875 -58 C 47.71875 -60.832031 47.070312 -63.394531 46.28125 -65.6875 C 45.488281 -67.976562 44.519531 -69.921875 43.375 -71.515625 C 42.226562 -73.109375 41.007812 -74.203125 39.71875 -74.796875 C 43.5 -74.492188 47.03125 -73.546875 50.3125 -71.953125 C 53.59375 -70.367188 56.523438 -68.28125 59.109375 -65.6875 C 61.703125 -63.101562 63.867188 -60.066406 65.609375 -56.578125 C 67.359375 -53.097656 68.628906 -49.316406 69.421875 -45.234375 L 44.78125 -45.234375 C 45.882812 -45.234375 46.859375 -45.628906 47.703125 -46.421875 C 48.546875 -47.222656 48.96875 -48.171875 48.96875 -49.265625 Z M 48.96875 -49.265625 "/></g></g></g><g fill="#004aad" fill-opacity="1"><g transform="translate(259.808289, 238.516545)"><g><path d="M 1.4375 -7.53125 L 2.375 -7.53125 L 3.53125 -0.9375 L 3.59375 -0.9375 L 7 -7.53125 L 7.9375 -7.53125 L 4.046875 0 L 2.765625 0 Z M 1.4375 -7.53125 "/></g></g></g><g fill="#004aad" fill-opacity="1"><g transform="translate(268.903356, 238.516545)"><g><path d="M 5.5625 -2.1875 L 2.5 -2.1875 L 1.328125 0 L 0.390625 0 L 4.5 -7.53125 L 5.375 -7.53125 L 6.9375 0 L 6 0 Z M 5.421875 -2.9375 L 4.765625 -6.34375 L 4.71875 -6.34375 L 2.90625 -2.9375 Z M 5.421875 -2.9375 "/></g></g></g><g fill="#004aad" fill-opacity="1"><g transform="translate(278.503712, 238.516545)"><g><path d="M 3.671875 0.09375 C 2.859375 0.09375 2.238281 -0.117188 1.8125 -0.546875 C 1.394531 -0.972656 1.1875 -1.582031 1.1875 -2.375 C 1.1875 -2.644531 1.210938 -2.957031 1.265625 -3.3125 L 1.984375 -7.53125 L 2.90625 -7.53125 L 2.1875 -3.34375 C 2.132812 -3.03125 2.109375 -2.773438 2.109375 -2.578125 C 2.109375 -2.078125 2.234375 -1.65625 2.484375 -1.3125 C 2.734375 -0.96875 3.175781 -0.796875 3.8125 -0.796875 C 4.632812 -0.796875 5.222656 -1.0625 5.578125 -1.59375 C 5.941406 -2.125 6.179688 -2.707031 6.296875 -3.34375 L 7.015625 -7.53125 L 7.9375 -7.53125 L 7.21875 -3.3125 C 7.03125 -2.21875 6.628906 -1.375 6.015625 -0.78125 C 5.398438 -0.195312 4.617188 0.09375 3.671875 0.09375 Z M 3.671875 0.09375 "/></g></g></g><g fill="#004aad" fill-opacity="1"><g transform="translate(288.14706, 238.516545)"><g><path d="M 5.390625 -0.84375 L 5.25 0 L 0.8125 0 L 2.078125 -7.53125 L 3.015625 -7.53125 L 1.875 -0.84375 Z M 5.390625 -0.84375 "/></g></g></g><g fill="#004aad" fill-opacity="1"><g transform="translate(296.124049, 238.516545)"><g><path d="M 6.984375 -6.6875 L 4.765625 -6.6875 L 3.625 0 L 2.703125 0 L 3.84375 -6.6875 L 1.625 -6.6875 L 1.765625 -7.53125 L 7.109375 -7.53125 Z M 6.984375 -6.6875 "/></g></g></g><g clip-path="url(#641eec4014)"><path fill="#5271ff" d="M 353.203125 228.601562 C 341.421875 230.773438 339.664062 232.53125 337.496094 244.3125 C 335.328125 232.53125 333.570312 230.773438 321.789062 228.601562 C 333.570312 226.433594 335.328125 224.675781 337.496094 212.894531 C 339.664062 224.675781 341.421875 226.433594 353.203125 228.601562 Z M 353.203125 228.601562 " fill-opacity="1" fill-rule="nonzero"/></g></svg>