<svg xmlns="http://www.w3.org/2000/svg" xmlns:xlink="http://www.w3.org/1999/xlink" width="500" zoomAndPan="magnify" viewBox="0 0 375 374.999991" height="500" preserveAspectRatio="xMidYMid meet" version="1.0"><defs><g/><clipPath id="92b386d998"><path d="M 246.207031 219.265625 L 282 219.265625 L 282 255.265625 L 246.207031 255.265625 Z M 246.207031 219.265625 " clip-rule="nonzero"/></clipPath></defs><g fill="#5271ff" fill-opacity="1"><g transform="translate(81.653824, 183.751588)"><g><path d="M 74.375 -153.125 C 70.4375 -153.125 66.753906 -151.082031 63.328125 -147 C 59.898438 -142.914062 56.910156 -137.375 54.359375 -130.375 C 51.804688 -123.375 49.800781 -115.242188 48.34375 -105.984375 C 46.882812 -96.722656 46.15625 -86.914062 46.15625 -76.5625 C 46.15625 -66.207031 46.882812 -56.398438 48.34375 -47.140625 C 49.800781 -37.878906 51.804688 -29.75 54.359375 -22.75 C 56.910156 -15.75 59.898438 -10.207031 63.328125 -6.125 C 66.753906 -2.039062 70.4375 0 74.375 0 C 64.894531 0 55.960938 -2.003906 47.578125 -6.015625 C 39.191406 -10.023438 31.863281 -15.492188 25.59375 -22.421875 C 19.320312 -29.347656 14.398438 -37.476562 10.828125 -46.8125 C 7.253906 -56.144531 5.46875 -66.0625 5.46875 -76.5625 C 5.46875 -87.0625 7.253906 -96.976562 10.828125 -106.3125 C 14.398438 -115.644531 19.320312 -123.773438 25.59375 -130.703125 C 31.863281 -137.628906 39.191406 -143.097656 47.578125 -147.109375 C 55.960938 -151.117188 64.894531 -153.125 74.375 -153.125 Z M 98.875 -139.34375 C 98.875 -141.53125 98.253906 -143.425781 97.015625 -145.03125 C 95.773438 -146.632812 94.207031 -147.984375 92.3125 -149.078125 C 90.414062 -150.171875 88.335938 -151.007812 86.078125 -151.59375 C 83.816406 -152.175781 81.664062 -152.613281 79.625 -152.90625 C 84.875 -152.46875 89.976562 -151.410156 94.9375 -149.734375 C 99.894531 -148.054688 104.488281 -145.941406 108.71875 -143.390625 C 112.945312 -140.835938 116.703125 -137.957031 119.984375 -134.75 C 123.265625 -131.539062 126 -128.257812 128.1875 -124.90625 C 129.644531 -122.425781 130.773438 -119.984375 131.578125 -117.578125 C 132.378906 -115.171875 132.78125 -112.800781 132.78125 -110.46875 C 132.78125 -107.257812 132.160156 -104.234375 130.921875 -101.390625 C 129.679688 -98.546875 128.003906 -96.066406 125.890625 -93.953125 C 123.773438 -91.835938 121.296875 -90.160156 118.453125 -88.921875 C 115.609375 -87.679688 112.582031 -87.0625 109.375 -87.0625 C 106.164062 -87.0625 103.140625 -87.679688 100.296875 -88.921875 C 97.453125 -90.160156 94.972656 -91.835938 92.859375 -93.953125 C 90.742188 -96.066406 89.066406 -98.546875 87.828125 -101.390625 C 86.585938 -104.234375 85.96875 -107.257812 85.96875 -110.46875 C 85.96875 -113.53125 86.515625 -116.445312 87.609375 -119.21875 C 88.703125 -121.988281 90.269531 -124.46875 92.3125 -126.65625 C 94.351562 -128.695312 95.957031 -130.8125 97.125 -133 C 98.289062 -135.1875 98.875 -137.300781 98.875 -139.34375 Z M 145.90625 -59.9375 C 142.257812 -59.9375 139.160156 -58.441406 136.609375 -55.453125 C 134.054688 -52.460938 132.78125 -49.144531 132.78125 -45.5 L 132.78125 0 C 130.15625 -1.601562 127.3125 -2.914062 124.25 -3.9375 C 121.1875 -4.957031 117.613281 -5.46875 113.53125 -5.46875 C 110.03125 -5.46875 106.859375 -5.25 104.015625 -4.8125 C 101.171875 -4.375 98.4375 -3.863281 95.8125 -3.28125 C 93.1875 -2.695312 90.5625 -2.113281 87.9375 -1.53125 C 85.3125 -0.945312 82.539062 -0.507812 79.625 -0.21875 C 82.101562 -0.507812 84.65625 -1.203125 87.28125 -2.296875 C 89.90625 -3.390625 92.238281 -4.59375 94.28125 -5.90625 L 94.28125 -45.5 C 94.28125 -49.144531 93.003906 -52.460938 90.453125 -55.453125 C 87.898438 -58.441406 84.726562 -59.9375 80.9375 -59.9375 Z M 145.90625 -59.9375 "/></g></g></g><g fill="#5271ff" fill-opacity="1"><g transform="translate(141.517939, 308.355087)"><g><path d="M 132.34375 -115.9375 C 132.34375 -111.707031 132.160156 -107.550781 131.796875 -103.46875 C 131.429688 -99.382812 130.882812 -95.375 130.15625 -91.4375 C 131.03125 -96.394531 130.738281 -100.476562 129.28125 -103.6875 C 127.820312 -106.894531 125.050781 -108.5 120.96875 -108.5 C 118.488281 -108.5 116.335938 -108.132812 114.515625 -107.40625 C 112.691406 -106.675781 110.320312 -106.3125 107.40625 -106.3125 C 104.195312 -106.3125 101.171875 -106.929688 98.328125 -108.171875 C 95.484375 -109.410156 93.003906 -111.085938 90.890625 -113.203125 C 88.773438 -115.316406 87.097656 -117.796875 85.859375 -120.640625 C 84.617188 -123.484375 84 -126.507812 84 -129.71875 C 84 -132.925781 84.617188 -135.953125 85.859375 -138.796875 C 87.097656 -141.640625 88.773438 -144.117188 90.890625 -146.234375 C 93.003906 -148.347656 95.484375 -150.023438 98.328125 -151.265625 C 101.171875 -152.503906 104.195312 -153.125 107.40625 -153.125 C 112.070312 -153.125 116.265625 -151.882812 119.984375 -149.40625 C 123.703125 -146.925781 126.507812 -143.71875 128.40625 -139.78125 C 130.15625 -136.28125 131.25 -132.34375 131.6875 -127.96875 C 132.125 -123.59375 132.34375 -119.582031 132.34375 -115.9375 Z M 41.34375 -15.09375 C 41.34375 -13.195312 41.960938 -11.300781 43.203125 -9.40625 C 44.441406 -7.507812 46.082031 -5.832031 48.125 -4.375 C 50.164062 -2.914062 52.5 -1.859375 55.125 -1.203125 C 57.75 -0.546875 60.445312 -0.507812 63.21875 -1.09375 C 59.863281 -0.363281 56.726562 0 53.8125 0 C 43.3125 0 34.816406 -3.570312 28.328125 -10.71875 C 21.835938 -17.863281 18.59375 -28.507812 18.59375 -42.65625 L 18.59375 -138.6875 C 18.59375 -142.332031 17.316406 -145.648438 14.765625 -148.640625 C 12.210938 -151.628906 9.113281 -153.125 5.46875 -153.125 L 53.15625 -153.125 C 54.320312 -153.125 55.269531 -152.722656 56 -151.921875 C 56.726562 -151.117188 57.09375 -150.132812 57.09375 -148.96875 L 57.09375 -45.5 C 57.09375 -41.5625 56.253906 -38.316406 54.578125 -35.765625 C 52.898438 -33.210938 51.078125 -30.878906 49.109375 -28.765625 C 47.140625 -26.648438 45.351562 -24.535156 43.75 -22.421875 C 42.144531 -20.304688 41.34375 -17.863281 41.34375 -15.09375 Z M 41.34375 -15.09375 "/></g></g></g><g clip-path="url(#92b386d998)"><path fill="#004aad" d="M 281.96875 237.148438 C 268.558594 239.617188 266.558594 241.617188 264.089844 255.027344 C 261.621094 241.617188 259.617188 239.617188 246.207031 237.148438 C 259.617188 234.679688 261.621094 232.675781 264.089844 219.265625 C 266.558594 232.675781 268.558594 234.679688 281.96875 237.148438 Z M 281.96875 237.148438 " fill-opacity="1" fill-rule="nonzero"/></g></svg>